<svg width="1920" height="1080" viewBox="0 0 1920 1080" fill="none" xmlns="http://www.w3.org/2000/svg">
<g clip-path="url(#clip0)">
<rect x="103" y="144.015" width="4.26421" height="4.26421" transform="rotate(-45 103 144.015)" fill="#F8F8F8"/>
<rect x="101.586" y="144.015" width="6.26421" height="6.26421" transform="rotate(-45 101.586 144.015)" stroke="#FDFDFD" stroke-opacity="0.4" stroke-width="2"/>
<rect x="1012" y="275.461" width="3.48009" height="3.46026" transform="rotate(-45 1012 275.461)" fill="#F8F8F8"/>
<rect x="1010.59" y="275.461" width="5.48009" height="5.46026" transform="rotate(-45 1010.59 275.461)" stroke="#FDFDFD" stroke-opacity="0.4" stroke-width="2"/>
<rect x="514" y="757.621" width="2.29287" height="2.29287" transform="rotate(-45 514 757.621)" fill="#F8F8F8"/>
<rect x="512.586" y="757.621" width="4.29287" height="4.29287" transform="rotate(-45 512.586 757.621)" stroke="#FDFDFD" stroke-opacity="0.4" stroke-width="2"/>
<rect x="110" y="579.621" width="2.29287" height="1.94972" transform="rotate(-45 110 579.621)" fill="#F8F8F8"/>
<rect x="108.586" y="579.621" width="4.29287" height="3.94972" transform="rotate(-45 108.586 579.621)" stroke="#FDFDFD" stroke-opacity="0.4" stroke-width="2"/>
<rect x="547" y="222.121" width="1.58576" height="1.58576" transform="rotate(-45 547 222.121)" fill="#F8F8F8"/>
<rect x="545.586" y="222.121" width="3.58576" height="3.58576" transform="rotate(-45 545.586 222.121)" stroke="#FDFDFD" stroke-opacity="0.4" stroke-width="2"/>
<rect x="1378" y="130.121" width="1.58576" height="1.58576" transform="rotate(-45 1378 130.121)" fill="#F8F8F8"/>
<rect x="1376.59" y="130.121" width="3.58576" height="3.58576" transform="rotate(-45 1376.59 130.121)" stroke="#FDFDFD" stroke-opacity="0.4" stroke-width="2"/>
<rect x="938" y="626.121" width="1.58576" height="1.58576" transform="rotate(-45 938 626.121)" fill="#F8F8F8"/>
<rect x="936.586" y="626.121" width="3.58576" height="3.58576" transform="rotate(-45 936.586 626.121)" stroke="#FDFDFD" stroke-opacity="0.4" stroke-width="2"/>
<rect x="761" y="455.879" width="1.24262" height="1.24262" transform="rotate(-45 761 455.879)" fill="#F8F8F8"/>
<rect x="759.586" y="455.879" width="3.24262" height="3.24262" transform="rotate(-45 759.586 455.879)" stroke="#FDFDFD" stroke-opacity="0.4" stroke-width="2"/>
<rect x="393" y="460.135" width="4.43314" height="4.43314" transform="rotate(-45 393 460.135)" fill="#F8F8F8"/>
<rect x="391.586" y="460.135" width="6.43314" height="6.43314" transform="rotate(-45 391.586 460.135)" stroke="#FDFDFD" stroke-opacity="0.4" stroke-width="2"/>
<rect x="1663" y="80.1347" width="4.43314" height="4.43314" transform="rotate(-45 1663 80.1347)" fill="#F8F8F8"/>
<rect x="1661.59" y="80.1347" width="6.43314" height="6.43314" transform="rotate(-45 1661.59 80.1347)" stroke="#FDFDFD" stroke-opacity="0.4" stroke-width="2"/>
<rect x="106" y="337.865" width="2.63784" height="2.63784" transform="rotate(-45 106 337.865)" fill="#F8F8F8"/>
<rect x="104.586" y="337.865" width="4.63784" height="4.63784" transform="rotate(-45 104.586 337.865)" stroke="#FDFDFD" stroke-opacity="0.4" stroke-width="2"/>
<rect x="314" y="583.865" width="4.05205" height="4.05205" transform="rotate(-45 314 583.865)" fill="#F8F8F8"/>
<rect x="312.586" y="583.865" width="6.05205" height="6.05205" transform="rotate(-45 312.586 583.865)" stroke="#FDFDFD" stroke-opacity="0.4" stroke-width="2"/>
<rect x="155" y="916.135" width="1.6048" height="1.6048" transform="rotate(-45 155 916.135)" fill="#F8F8F8"/>
<rect x="153.586" y="916.135" width="3.6048" height="3.6048" transform="rotate(-45 153.586 916.135)" stroke="#FDFDFD" stroke-opacity="0.4" stroke-width="2"/>
</g>
<defs>
<clipPath id="clip0">
<rect width="1920" height="1080" fill="white"/>
</clipPath>
</defs>
</svg>
