<svg width="1920" height="1080" viewBox="0 0 1920 1080" fill="none" xmlns="http://www.w3.org/2000/svg">
<rect x="393.202" y="215.798" width="4.26421" height="4.26421" transform="rotate(-45 393.202 215.798)" fill="#F8F8F8"/>
<rect x="391.081" y="215.798" width="7.26421" height="7.26421" transform="rotate(-45 391.081 215.798)" stroke="#FDFDFD" stroke-opacity="0.4" stroke-width="3"/>
<rect x="990.553" y="144.553" width="3.48009" height="3.46026" transform="rotate(-45 990.553 144.553)" fill="#F8F8F8"/>
<rect x="988.431" y="144.553" width="6.48009" height="6.46026" transform="rotate(-45 988.431 144.553)" stroke="#FDFDFD" stroke-opacity="0.4" stroke-width="3"/>
<rect x="661.242" y="528.243" width="2.29287" height="2.29287" transform="rotate(-45 661.242 528.243)" fill="#F8F8F8"/>
<rect x="659.121" y="528.243" width="5.29287" height="5.29287" transform="rotate(-45 659.121 528.243)" stroke="#FDFDFD" stroke-opacity="0.4" stroke-width="3"/>
<rect x="90.6211" y="887.621" width="2.29287" height="1.94972" transform="rotate(-45 90.6211 887.621)" fill="#F8F8F8"/>
<rect x="88.4998" y="887.621" width="5.29287" height="4.94972" transform="rotate(-45 88.4998 887.621)" stroke="#FDFDFD" stroke-opacity="0.4" stroke-width="3"/>
<rect x="979.121" y="755.121" width="1.58576" height="1.58576" transform="rotate(-45 979.121 755.121)" fill="#F8F8F8"/>
<rect x="977" y="755.121" width="4.58576" height="4.58576" transform="rotate(-45 977 755.121)" stroke="#FDFDFD" stroke-opacity="0.4" stroke-width="3"/>
<rect x="1435.36" y="698.879" width="1.24262" height="1.24262" transform="rotate(-45 1435.36 698.879)" fill="#F8F8F8"/>
<rect x="1433.24" y="698.879" width="4.24262" height="4.24262" transform="rotate(-45 1433.24 698.879)" stroke="#FDFDFD" stroke-opacity="0.4" stroke-width="3"/>
<rect x="66.2695" y="466.27" width="4.43314" height="4.43314" transform="rotate(-45 66.2695 466.27)" fill="#F8F8F8"/>
<rect x="64.1482" y="466.27" width="7.43314" height="7.43314" transform="rotate(-45 64.1482 466.27)" stroke="#FDFDFD" stroke-opacity="0.4" stroke-width="3"/>
<rect x="132.73" y="126.73" width="2.63784" height="2.63784" transform="rotate(-45 132.73 126.73)" fill="#F8F8F8"/>
<rect x="130.609" y="126.73" width="5.63784" height="5.63784" transform="rotate(-45 130.609 126.73)" stroke="#FDFDFD" stroke-opacity="0.4" stroke-width="3"/>
<rect x="196.73" y="656.73" width="4.05205" height="4.05205" transform="rotate(-45 196.73 656.73)" fill="#F8F8F8"/>
<rect x="194.609" y="656.73" width="7.05205" height="7.05205" transform="rotate(-45 194.609 656.73)" stroke="#FDFDFD" stroke-opacity="0.4" stroke-width="3"/>
<rect x="534.5" y="938.23" width="1.6048" height="1.6048" transform="rotate(-45 534.5 938.23)" fill="#F8F8F8"/>
<rect x="532.379" y="938.23" width="4.6048" height="4.6048" transform="rotate(-45 532.379 938.23)" stroke="#FDFDFD" stroke-opacity="0.4" stroke-width="3"/>
</svg>
